<svg xmlns="http://www.w3.org/2000/svg" viewBox="0 0 54.09 58.62"><defs><style>.cls-1{fill:#c4c1be;fill-rule:evenodd;}</style></defs><title>Zasób 3</title><g id="Warstwa_2" data-name="Warstwa 2"><g id="Warstwa_1-2" data-name="Warstwa 1"><path class="cls-1" d="M51.21.79a1.07,1.07,0,0,0-.54-.67h0a1.07,1.07,0,0,0-1.44.44h0s-5.4,10.51-22,12.34A21.07,21.07,0,0,0,21,14.58a17.42,17.42,0,0,0-8.36,7.66,18,18,0,0,0-2.06,10.49,17.63,17.63,0,0,0,2.58,7.44C10.19,42.28.85,49.59,0,57.44a1.07,1.07,0,1,0,2.12.22c.77-7,9.54-13.8,12.27-15.77a18.88,18.88,0,0,0,13.47,6.68A22.77,22.77,0,0,0,38.24,46.8,23.8,23.8,0,0,0,47.39,40c6.32-7.66,9.33-20.53,3.82-39.22ZM15,39.11h0a15.36,15.36,0,0,1-1.07-2A15.56,15.56,0,0,1,12.7,32.5a15.86,15.86,0,0,1,1.77-9.25,15.32,15.32,0,0,1,7.36-6.73A19,19,0,0,1,27.48,15C38.43,13.86,44.87,9,48.19,5.45a45.17,45.17,0,0,1-9.84,17.3l-.65-6.53a1.07,1.07,0,0,0-2.13.12s0,.06,0,.09l.83,8.39A68.26,68.26,0,0,1,15,39.11Zm30.73-.47h0a21.66,21.66,0,0,1-8.32,6.21A20.62,20.62,0,0,1,28,46.44,16.86,16.86,0,0,1,16.3,40.86a80.33,80.33,0,0,0,10.17-5.4l9.36,1.77a1.07,1.07,0,0,0,.38-2.1L29,33.77A62.18,62.18,0,0,0,38.25,26l.14-.15A48.11,48.11,0,0,0,50.31,5.74C54,21.28,51.16,32.08,45.74,38.64Z"/></g></g></svg>