<svg xmlns="http://www.w3.org/2000/svg" viewBox="0 0 51.89 69.19"><defs><style>.cls-1{fill:#c4c1be;fill-rule:evenodd;}</style></defs><title>Zasób 1</title><g id="Warstwa_2" data-name="Warstwa 2"><g id="Warstwa_1-2" data-name="Warstwa 1"><path class="cls-1" d="M51.79,41.19l0-.68C51,30.19,46.15,23.73,41.91,18,38,12.74,34.59,8.18,34.59,1.44A1.44,1.44,0,0,0,33.81.16a1.43,1.43,0,0,0-1.5.11A36.66,36.66,0,0,0,18.78,19.83,63.83,63.83,0,0,0,17.3,34.45c-5.88-1.26-7.21-10-7.22-10.15A1.44,1.44,0,0,0,8,23.21C7.71,23.36.45,27,0,41.77c0,.49,0,1,0,1.47a25.95,25.95,0,1,0,51.89,0c0-.72,0-1.39-.1-2.06ZM25.95,66.31c-4.77,0-8.65-4.13-8.65-9.21,0-.17,0-.35,0-.56A11.68,11.68,0,0,1,18.22,52,5.26,5.26,0,0,0,23,55.4,1.44,1.44,0,0,0,24.42,54,28.84,28.84,0,0,1,25,47.41a13.93,13.93,0,0,1,2.92-5.53,18.58,18.58,0,0,0,3,5.45c1.67,2.37,3.39,4.82,3.7,9,0,.25,0,.5,0,.76,0,5.08-3.88,9.21-8.65,9.21Zm9.11-1.88a12.35,12.35,0,0,0,2.42-7.33c0-.34,0-.65-.06-1.24-.34-4.71-2.39-7.61-4.19-10.18-1.54-2.18-2.87-4.07-2.87-6.75A1.44,1.44,0,0,0,28,37.77a16.84,16.84,0,0,0-5.88,9,26.4,26.4,0,0,0-.61,5.12,6.85,6.85,0,0,1-1.31-3.1,1.44,1.44,0,0,0-2.09-1.09c-.36.19-3.55,2-3.74,8.75,0,.23,0,.46,0,.68a12.35,12.35,0,0,0,2.42,7.33,23.09,23.09,0,0,1-14-21.18c0-.43,0-.86,0-1.34.25-8.64,3-12.93,4.82-14.82,1.26,4.5,4.55,10.39,11,10.39A1.44,1.44,0,0,0,20.18,36c0-4.82.11-10.4,1.4-15.5A34.21,34.21,0,0,1,31.89,4.28c.8,6.17,4.17,10.7,7.7,15.46,4.2,5.66,8.55,11.5,9.27,21l0,.69c0,.6.09,1.2.09,1.84A23.09,23.09,0,0,1,35.06,64.43Z"/></g></g></svg>