<svg xmlns="http://www.w3.org/2000/svg" viewBox="0 0 14 16"><defs><style>.cls-1{fill:#3bb3c6;}</style></defs><title>Zasób 30</title><g id="Warstwa_2" data-name="Warstwa 2"><g id="Layer_1" data-name="Layer 1"><path class="cls-1" d="M10,9H4a4.3,4.3,0,0,0-4,4v3H14V13A4.3,4.3,0,0,0,10,9Zm3,6H1V14a3.66,3.66,0,0,1,4-4H9a3.66,3.66,0,0,1,4,4Z"/><path class="cls-1" d="M4,6.62a4,4,0,0,0,6,0V8h1V4A4,4,0,0,0,3,4V8H4ZM8,1.18A3,3,0,1,1,4.18,5,4,4,0,0,0,8,1.18ZM7,1A3,3,0,0,1,4,4,3,3,0,0,1,7,1Z"/></g></g></svg>