<svg xmlns="http://www.w3.org/2000/svg" viewBox="0 0 16 16"><defs><style>.cls-1{fill:#3bb3c6;}</style></defs><title>Zasób 31</title><g id="Warstwa_2" data-name="Warstwa 2"><g id="Layer_1" data-name="Layer 1"><path class="cls-1" d="M16,12V0H0V12H6v1c-3,0-3,1-3,3H13c0-2,0-3-3-3V12Zm-5,2a1,1,0,0,1,1,1H4a1,1,0,0,1,1-1H7V11H1V1H15V11H9v3Z"/><polygon class="cls-1" points="14 2 11 2 11 3 13 3 13 8 11 8 11 6 10 6 10 8 3 8 3 3 10 3 10 2 2 2 2 9 14 9 14 2"/><rect class="cls-1" x="10" y="3" width="1" height="2"/><rect class="cls-1" x="4" y="4" width="3" height="1"/><rect class="cls-1" x="4" y="6" width="4" height="1"/></g></g></svg>