<svg xmlns="http://www.w3.org/2000/svg" viewBox="0 0 16 14"><defs><style>.cls-1{fill:#3bb3c6;}</style></defs><title>Zasób 32</title><g id="Warstwa_2" data-name="Warstwa 2"><g id="Layer_1" data-name="Layer 1"><path class="cls-1" d="M13,1V3H10V1H6V3H3V1H0V14H16V1Zm2,12H1V2H2V4H7V2H9V4h5V2h1Z"/><rect class="cls-1" x="4" width="1" height="2"/><rect class="cls-1" x="11" width="1" height="2"/><polygon class="cls-1" points="11 6 11 5 9 6 9 7 10 6.5 10 11 9 11 9 12 10 12 11 12 12 12 12 11 11 11 11 6"/><path class="cls-1" d="M8,7A2,2,0,0,0,4,7H5A1,1,0,1,1,6,8V9a1,1,0,1,1-1,1H4A2,2,0,1,0,7.31,8.5,2,2,0,0,0,8,7Z"/></g></g></svg>