<svg xmlns="http://www.w3.org/2000/svg" viewBox="0 0 16 12"><defs><style>.cls-1{fill:#3bb3c6;}</style></defs><title>Zasób 33</title><g id="Warstwa_2" data-name="Warstwa 2"><g id="Layer_1" data-name="Layer 1"><circle class="cls-1" cx="10" cy="7" r="1"/><path class="cls-1" d="M14,0H2C0,0,0,0,0,2v8c0,2,0,2,2,2H14c2,0,2,0,2-2V9H10C8,9,8,9,8,8V6c0-1,0-1,2-1h6V2C16,0,16,0,14,0Zm1,4H10C8,4,7,4,7,6V8c0,2,1,2,3,2h5c0,1,0,1-2,1H3c-2,0-2,0-2-1V2C1,1,1,1,3,1H13c2,0,2,0,2,1H2.75c-1,0-1,1,0,1H15Z"/></g></g></svg>