<svg xmlns="http://www.w3.org/2000/svg" viewBox="0 0 16 16"><defs><style>.cls-1{fill:#3bb3c6;}</style></defs><title>s5</title><g id="Warstwa_2" data-name="Warstwa 2"><g id="Layer_1" data-name="Layer 1"><g id="Scuba-mask"><path class="cls-1" d="M6,5.51c.12-.35.26-.41.53-.41s.41.06.52.38A3,3,0,0,0,9.88,8,3.29,3.29,0,0,0,13,4.56V3a1,1,0,0,0-1-1H1A1,1,0,0,0,0,3V4.56A3.29,3.29,0,0,0,3.13,8,3,3,0,0,0,6,5.51ZM3.13,7A2.3,2.3,0,0,1,1,4.56V3H12V4.56A2.3,2.3,0,0,1,9.88,7,2.09,2.09,0,0,1,8,5.19,1.43,1.43,0,0,0,6.5,4.1,1.48,1.48,0,0,0,5,5.23,2.07,2.07,0,0,1,3.13,7Z"/><path class="cls-1" d="M15.5,0a.5.5,0,0,0-.5.5V10.7a4.3,4.3,0,0,1-8.61,0s0,0,0,0,0,0,0,0A2,2,0,0,0,5.72,9l0,0h0a1.5,1.5,0,0,0,.83.3A1.45,1.45,0,0,0,7.31,9h0l0,0a2,2,0,0,0-.61,1.57h0a4,4,0,0,0,7.94,0V.5a.5.5,0,0,0-1,0V10.61a3,3,0,0,1-5.94,0,1.05,1.05,0,0,1,.33-.89.49.49,0,0,0,.13-.16,1,1,0,0,0,.14-1.29,1.08,1.08,0,0,0-1.52-.1h0c-.24.14-.24.14-.51,0h0a1.09,1.09,0,0,0-1.55.08A1.07,1.07,0,0,0,5,9.71h0a1.06,1.06,0,0,1,.33.9s0,0,0,0,0,0,0,0A5.3,5.3,0,0,0,16,10.7V.5A.5.5,0,0,0,15.5,0Z"/></g></g></g></svg>