<svg xmlns="http://www.w3.org/2000/svg" viewBox="0 0 16 12"><defs><style>.cls-1{fill:#3bb3c6;}</style></defs><title>s</title><g id="Warstwa_2" data-name="Warstwa 2"><g id="Layer_1" data-name="Layer 1"><g id="Swimming"><path class="cls-1" d="M13.63,10.08a3,3,0,0,0-1.87.73,3,3,0,0,0-1.88-.73A3,3,0,0,0,8,10.81a3,3,0,0,0-1.88-.73,3,3,0,0,0-1.87.73,3,3,0,0,0-1.88-.73,3.24,3.24,0,0,0-2.26,1.1.5.5,0,1,0,.76.64,2.26,2.26,0,0,1,1.49-.74,2.21,2.21,0,0,1,1.49.74l0,0,0,0,.07,0,.07,0,.13,0h.15l.1,0,.07,0,.05,0,0,0,0,0a2.26,2.26,0,0,1,1.49-.74,2.21,2.21,0,0,1,1.49.74l0,0,0,0,.07,0,.07,0L8,12H8.1l.1,0,.07,0,.05,0,0,0,0,0a2.26,2.26,0,0,1,1.49-.74,2.21,2.21,0,0,1,1.49.74l0,0,0,0,.07,0,.07,0,.13,0h.15l.1,0,.07,0,.05,0,0,0,0,0a2.26,2.26,0,0,1,1.49-.74,2.21,2.21,0,0,1,1.49.74.5.5,0,1,0,.77-.64A3.2,3.2,0,0,0,13.63,10.08Z"/><path class="cls-1" d="M.88,8.82a2.26,2.26,0,0,1,1.49-.74,2.21,2.21,0,0,1,1.49.74l0,0,0,0,.07,0,.07,0L4.2,9h.15l.1,0,.07,0,.05,0,0,0,0,0a2.26,2.26,0,0,1,1.49-.74,2.21,2.21,0,0,1,1.49.74l0,0,0,0,.07,0,.07,0L8,9H8.1l.1,0,.07,0,.05,0,0,0,0,0a2.26,2.26,0,0,1,1.49-.74,2.21,2.21,0,0,1,1.49.74l0,0,0,0,.07,0,.07,0,.13,0h.15l.1,0,.07,0,.05,0,0,0,0,0a2.26,2.26,0,0,1,1.49-.74,2.21,2.21,0,0,1,1.49.74.5.5,0,1,0,.77-.64,3.2,3.2,0,0,0-2.26-1.1,3,3,0,0,0-1.87.73l-.25-.19V.5a.5.5,0,0,0-1,0v2h-5V.5a.5.5,0,0,0-1,0V7.62l-.25.19a3,3,0,0,0-1.88-.73A3.24,3.24,0,0,0,.12,8.18a.5.5,0,1,0,.76.64ZM10.5,3.47v1h-5v-1Zm-5,2h5V7.16a2.51,2.51,0,0,0-.63-.09A3,3,0,0,0,8,7.81a3,3,0,0,0-1.88-.73,2.47,2.47,0,0,0-.62.09Z"/></g></g></g></svg>