<svg xmlns="http://www.w3.org/2000/svg" viewBox="0 0 624.76 257.22"><defs><style>.cls-1,.cls-2,.cls-3,.cls-4,.cls-6{fill-rule:evenodd;}.cls-1{fill:url(#GradientFill_1);}.cls-2{fill:url(#GradientFill_2);}.cls-3,.cls-5{fill:#1a1a18;}.cls-4{fill:url(#GradientFill_3);}.cls-6{fill:url(#GradientFill_4);}</style><linearGradient id="GradientFill_1" x1="7.74" y1="106.68" x2="62.63" y2="161.58" gradientUnits="userSpaceOnUse"><stop offset="0" stop-color="#b1b2b3"/><stop offset="1" stop-color="#fff"/></linearGradient><linearGradient id="GradientFill_2" x1="106.38" y1="202.67" x2="149.43" y2="245.72" gradientUnits="userSpaceOnUse"><stop offset="0" stop-color="#007dbb"/><stop offset="1" stop-color="#a1d9f8"/></linearGradient><linearGradient id="GradientFill_3" x1="109.49" y1="24.05" x2="153.75" y2="68.32" gradientUnits="userSpaceOnUse"><stop offset="0" stop-color="#e3000f"/><stop offset="1" stop-color="#ffed00"/></linearGradient><linearGradient id="GradientFill_4" x1="197.73" y1="121.87" x2="229.84" y2="153.98" gradientUnits="userSpaceOnUse"><stop offset="0" stop-color="#00963f"/><stop offset="1" stop-color="#fff"/></linearGradient></defs><title>ja jebe</title><g><g><path class="cls-1" d="M15.41,105.38a15.42,15.42,0,0,1,15.41,15.41,1.71,1.71,0,0,1-3.42,0,12,12,0,1,0-12,12H77a1.71,1.71,0,1,1,0,3.42H15.41a15.41,15.41,0,1,1,0-30.81ZM18.83,143H77a1.71,1.71,0,1,1,0,3.42H18.83A8.56,8.56,0,1,0,27.39,155a1.71,1.71,0,1,1,3.42,0,12,12,0,1,1-12-12ZM47.93,102a12,12,0,1,0,0,24H77a1.71,1.71,0,1,0,0-3.42H47.93a8.56,8.56,0,1,1,8.56-8.56,1.71,1.71,0,1,0,3.42,0A12,12,0,0,0,47.93,102Z"/><path class="cls-2" d="M129.66,183a1.92,1.92,0,0,0-1.74-1,1.88,1.88,0,0,0-1.74,1q-22.35,38.58-22.39,50.09A23.6,23.6,0,0,0,107,245.21a24,24,0,0,0,8.82,8.79A24.25,24.25,0,0,0,140,254a23.94,23.94,0,0,0,8.79-8.79A23.58,23.58,0,0,0,152,233.08q0-11.57-22.39-50.09Zm5.93,36a2,2,0,0,1,2.89.22c.25.3,6.58,7.85,5.15,16.35-.87,5.15-4.23,9.38-10.12,12.75a2.74,2.74,0,0,1-1,.23,2,2,0,0,1-1-3.79c4.76-2.76,7.39-6.09,8.12-9.89a14.43,14.43,0,0,0-1-7.42,16.8,16.8,0,0,0-1.37-2.89,18.84,18.84,0,0,0-1.85-2.67,2,2,0,0,1,.22-2.89Zm9.68,24.13a20.19,20.19,0,0,1-7.34,7.27,20,20,0,0,1-20.09,0,19.92,19.92,0,0,1-7.3-7.27,19.65,19.65,0,0,1-2.67-10.08c0-2,.69-5,2.08-8.82a122.93,122.93,0,0,1,5.41-12.57c4.44-9.06,8.56-16.69,12.57-23.55,4,6.86,8.1,14.51,12.53,23.55a122.9,122.9,0,0,1,5.41,12.57c1.39,3.86,2.11,6.78,2.11,8.82A19.48,19.48,0,0,1,145.26,243.17Z"/><path class="cls-3" d="M209.48,213.18a2,2,0,1,1-2.87,2.87l-78.7-78.7L49.22,216a2,2,0,1,1-2.87-2.87l78.7-78.7-78.7-78.7a2,2,0,0,1,2.87-2.87l78.7,78.7,78.7-78.7a2,2,0,1,1,2.87,2.87l-78.7,78.7Z"/><path class="cls-4" d="M158.36,48.52l-.06-.8c-.93-12.16-6.59-19.78-11.59-26.5C142.1,15,138.1,9.63,138.1,1.7a1.7,1.7,0,0,0-.92-1.51,1.68,1.68,0,0,0-1.76.13,43.19,43.19,0,0,0-15.94,23,75.2,75.2,0,0,0-1.75,17.22c-6.93-1.48-8.49-11.84-8.51-12a1.71,1.71,0,0,0-.88-1.26,1.69,1.69,0,0,0-1.54,0c-.36.18-8.91,4.52-9.41,21.87,0,.58,0,1.15,0,1.73a30.57,30.57,0,0,0,61.13,0c0-.85-.06-1.63-.12-2.42ZM127.91,78.12c-5.62,0-10.19-4.87-10.19-10.85,0-.2,0-.41,0-.66a13.77,13.77,0,0,1,1.07-5.39c1,2.12,2.75,4.06,5.61,4.06a1.7,1.7,0,0,0,1.7-1.7,34,34,0,0,1,.65-7.72,16.41,16.41,0,0,1,3.44-6.51,21.88,21.88,0,0,0,3.5,6.42c2,2.79,4,5.68,4.35,10.6,0,.29,0,.59,0,.9,0,6-4.57,10.85-10.19,10.85Zm10.73-2.22a14.55,14.55,0,0,0,2.85-8.64c0-.4,0-.77-.07-1.47-.4-5.54-2.81-9-4.94-12-1.81-2.57-3.38-4.8-3.38-8a1.7,1.7,0,0,0-2.72-1.35,19.84,19.84,0,0,0-6.92,10.56,31.08,31.08,0,0,0-.71,6,8.07,8.07,0,0,1-1.55-3.65,1.7,1.7,0,0,0-2.46-1.28c-.43.22-4.19,2.37-4.4,10.3,0,.27,0,.54,0,.8a14.55,14.55,0,0,0,2.85,8.63,27.2,27.2,0,0,1-16.44-25c0-.51,0-1,0-1.58.29-10.18,3.55-15.23,5.67-17.45,1.48,5.31,5.37,12.24,13,12.24a1.7,1.7,0,0,0,1.7-1.7c0-5.68.13-12.25,1.65-18.26C124.49,17.38,129.22,10,134.92,5c.95,7.27,4.91,12.61,9.07,18.21,5,6.66,10.07,13.55,10.93,24.71l.06.81c.05.71.11,1.41.11,2.17A27.21,27.21,0,0,1,138.65,75.9Z"/><path class="cls-5" d="M377.6,106.52q5,0,5,4.82a5.93,5.93,0,0,1-1.39,4.08,18.74,18.74,0,0,1-7.51,6,25.3,25.3,0,0,1-8.81,2.83q-1.3.09-1.39-.74c-.06-.25,0-.4.23-.46a2,2,0,0,1,.51-.09,14.72,14.72,0,0,0,5.47-2,29.92,29.92,0,0,0,9.09-6.86,5.52,5.52,0,0,0,1.21-3.2,1.33,1.33,0,0,0-1.48-1.53,7.9,7.9,0,0,0-3.25,1,32,32,0,0,0-9.18,7.09,25.68,25.68,0,0,0-6.3,9.87,9.74,9.74,0,0,0-.46,2.92,4,4,0,0,0,1.21,2.74,4.83,4.83,0,0,0,3.71,1.3,17.21,17.21,0,0,0,6.4-1.48,34,34,0,0,0,16.13-12.89q.56-.74,1-.28c.25.12.37.28.37.46a1.14,1.14,0,0,1-.28.65,33.12,33.12,0,0,1-7,8.25q-8.25,7-16,7-6.68,0-9.36-4a6.84,6.84,0,0,1-1-3.8,14.82,14.82,0,0,1,1.21-5.28q2.32-5.29,9.92-10.85T377.6,106.52Z"/><path class="cls-5" d="M390.3,121.64a22.06,22.06,0,0,0-1.21,4.22q-.09,1.07-.09,2.87a6.07,6.07,0,0,0,.93,3.29q1.57,2.5,5.28.37a37.13,37.13,0,0,0,7-5.42,48.89,48.89,0,0,0,6.58-7.19.62.62,0,0,1,.56-.28q.83,0,.46,1.21a34,34,0,0,1-5.15,6.4,57,57,0,0,1-6.81,6.17,10.24,10.24,0,0,1-6.12,2.27q-7,0-7-6.86v-.56q.37-6.49,6.58-19.61t11.22-19.79l2.87-3.62a33.23,33.23,0,0,1,3-3q3.71-3.52,7.65-3.52T421.36,81a5.06,5.06,0,0,1,.46,2.41,11.32,11.32,0,0,1-1.39,4.45Q410.88,104.49,390.3,121.64Zm27.63-35.42A7.38,7.38,0,0,0,419,83.07q0-1.95-1.58-1.95a5.88,5.88,0,0,0-3.25,1.48q-7.42,5.75-14.37,18.17a123.72,123.72,0,0,0-8.16,17.15q6.4-4.36,14.32-14.19A108.23,108.23,0,0,0,417.93,86.22Z"/><path class="cls-5" d="M429,106.52q5,0,5,4.82a5.93,5.93,0,0,1-1.39,4.08,18.74,18.74,0,0,1-7.51,6,25.3,25.3,0,0,1-8.81,2.83q-1.3.09-1.39-.74c-.06-.25,0-.4.23-.46a2,2,0,0,1,.51-.09,14.72,14.72,0,0,0,5.47-2,29.92,29.92,0,0,0,9.09-6.86,5.52,5.52,0,0,0,1.21-3.2,1.33,1.33,0,0,0-1.48-1.53,7.9,7.9,0,0,0-3.25,1,32,32,0,0,0-9.18,7.09,25.68,25.68,0,0,0-6.3,9.87,9.74,9.74,0,0,0-.46,2.92,4,4,0,0,0,1.21,2.74,4.83,4.83,0,0,0,3.71,1.3,17.21,17.21,0,0,0,6.4-1.48,34,34,0,0,0,16.13-12.89q.56-.74,1-.28c.25.12.37.28.37.46a1.14,1.14,0,0,1-.28.65,33.12,33.12,0,0,1-7,8.25q-8.25,7-16,7-6.68,0-9.36-4a6.84,6.84,0,0,1-1-3.8,14.82,14.82,0,0,1,1.21-5.28q2.32-5.29,9.92-10.85T429,106.52Z"/><path class="cls-5" d="M449.27,109.4a9.43,9.43,0,0,1-1,2.83q-1,2.18-5.84,15,3.34-4.08,8.44-9.46Q461.13,107,465,107a3.17,3.17,0,0,1,1.62.46q.79.47.79,2.09a8.08,8.08,0,0,1-1,3.62q-1,2-2.32,4.87t-1.76,3.62q7.79-7,11.78-8.58a19.47,19.47,0,0,1,5.28-1.53q1.3,0,1.3.93a8,8,0,0,1-1.39,2.69,37.71,37.71,0,0,0-3.06,6.3,27.21,27.21,0,0,0-1.85,5.84,27.08,27.08,0,0,0-.18,3,3.08,3.08,0,0,0,.74,2.13q1.39,1.48,3.8.19a39.17,39.17,0,0,0,6.72-5.19,46.08,46.08,0,0,0,6.91-7.6.68.68,0,0,1,.88-.23c.34.16.51.31.51.46a.94.94,0,0,1-.19.51,36.09,36.09,0,0,1-5,6.4q-5.93,6.4-9.92,7.88-4.36,1.48-6.3.37a4.88,4.88,0,0,1-2.41-2.5,8.74,8.74,0,0,1-.46-2.78,23.63,23.63,0,0,1,1.71-8.72,38.16,38.16,0,0,1,2.74-5.93,21.59,21.59,0,0,0-6,3.71,83.81,83.81,0,0,0-6.12,5.84l-1.85,2a3.49,3.49,0,0,1-2.92,2.32q-2.09.28-2-1.39t3.43-7.88q3.24-6.12,3.25-6.81t-.74-.7q-1.67,0-6,3.8a87.28,87.28,0,0,0-8.48,10.15q-5.61,7.46-6.35,7.93a14.63,14.63,0,0,1-4.17,1.67q-.83,0-.83-.28a2.13,2.13,0,0,1,.28-.83q.28-.56,5.66-16.13a30,30,0,0,1-3.71,4.82q-.74.83-.74-.32a3.15,3.15,0,0,1,.65-2,65,65,0,0,0,6.12-9.27q.56-3.24,2.22-3.8a3.86,3.86,0,0,1,2.36,0Q449.26,108.47,449.27,109.4Z"/><path class="cls-5" d="M512.68,106.52q5,0,5,4.82a5.93,5.93,0,0,1-1.39,4.08,18.74,18.74,0,0,1-7.51,6,25.3,25.3,0,0,1-8.81,2.83q-1.3.09-1.39-.74c-.06-.25,0-.4.23-.46a2,2,0,0,1,.51-.09,14.72,14.72,0,0,0,5.47-2,29.92,29.92,0,0,0,9.09-6.86,5.52,5.52,0,0,0,1.21-3.2,1.33,1.33,0,0,0-1.48-1.53,7.9,7.9,0,0,0-3.25,1,32,32,0,0,0-9.18,7.09,25.68,25.68,0,0,0-6.3,9.87,9.74,9.74,0,0,0-.46,2.92,4,4,0,0,0,1.21,2.74,4.83,4.83,0,0,0,3.71,1.3,17.21,17.21,0,0,0,6.4-1.48,34,34,0,0,0,16.13-12.89q.56-.74,1-.28c.25.12.37.28.37.46a1.14,1.14,0,0,1-.28.65,33.12,33.12,0,0,1-7,8.25q-8.25,7-16,7-6.68,0-9.36-4a6.84,6.84,0,0,1-1-3.8,14.82,14.82,0,0,1,1.21-5.28q2.32-5.29,9.92-10.85T512.68,106.52Z"/><path class="cls-5" d="M546.71,107.17q2.13,0,2.13,2.27t-2.13,6.26q-2.13,4-3.15,6.49a19.14,19.14,0,0,0-1.76,6.81q0,2.55.74,3.38,1.39,1.48,3.8.14a42.65,42.65,0,0,0,6.72-5.19,44.63,44.63,0,0,0,6.91-7.56.68.68,0,0,1,.88-.23c.34.16.51.31.51.46a.94.94,0,0,1-.19.51,36.12,36.12,0,0,1-5,6.4,46,46,0,0,1-7,6.26,11.38,11.38,0,0,1-6.58,2.36q-3.15-.09-4.45-1.44a4.67,4.67,0,0,1-1.3-3.38,20.48,20.48,0,0,1,.37-3.94,24.14,24.14,0,0,1,1.39-4.4,62.31,62.31,0,0,1,2.92-6.21,8.47,8.47,0,0,0,1.25-2.92q0-.7-.74-.7-1.48,0-5.66,3.62a87.38,87.38,0,0,0-8.48,10.15q-5.61,7.46-6.35,7.93a14.63,14.63,0,0,1-4.17,1.67q-.83,0-.83-.28a2.53,2.53,0,0,1,.19-.79l1.81-5.05q1.62-4.54,3.52-10t2.32-6.54a11,11,0,0,0,.56-1.9,9.43,9.43,0,0,1,.33-1.34,4.68,4.68,0,0,1,.7-1.25,1.72,1.72,0,0,1,1.34-.74,9.66,9.66,0,0,1,2.13.19q1.3.23,1.3,1.16a9.41,9.41,0,0,1-1,2.83q-1,2.18-5.84,15,3.34-4.08,8.44-9.41a88.74,88.74,0,0,1,8.62-8.11Q544.48,107.17,546.71,107.17Z"/><path class="cls-5" d="M573.6,107.54q7.14-.65,8.67-.65t1.53.46q0,.56-2.18,1.16A91.7,91.7,0,0,1,571,110q-.47.83-1.11,1.95a14.52,14.52,0,0,0-1.48,2.69q-5.28,10.57-5.56,13.44a19.8,19.8,0,0,0-.09,2.13,3.08,3.08,0,0,0,.74,2.13q1.3,1.48,3.71.19a39.17,39.17,0,0,0,6.72-5.19,50,50,0,0,0,7-7.6.68.68,0,0,1,.93-.19q1.39.65-4.82,7.32-5.94,6.4-9.92,7.88a11.93,11.93,0,0,1-3.89.83,4.77,4.77,0,0,1-4.91-3.52,5.74,5.74,0,0,1-.19-1.58q0-3.24,3-9.83a29.9,29.9,0,0,1-3.62,4.64q-.83.93-1.3,0a1.14,1.14,0,0,1-.09-.51,1.37,1.37,0,0,1,.37-.79q4.54-5.65,7.14-9.55,0-.09,2-3.89a9.6,9.6,0,0,1-1.9.19,1.7,1.7,0,0,1-1.44-.6,1.32,1.32,0,0,1-.09-1.44q.65-1.48,4.91-1.67a.37.37,0,0,1,.37-.19l4.64-8.62q.37-.74.83-1.53t.7-1.21q.23-.42.51-.88a3.58,3.58,0,0,1,.46-.65l.37-.37q.37-.56,2.18-.56a2.69,2.69,0,0,1,2.46,1,2.14,2.14,0,0,1,.28,1.25,3.82,3.82,0,0,1-.65,1.95,4.52,4.52,0,0,1-1.39,1.53,2.67,2.67,0,0,0-1,1l-4.45,7.79Z"/><path class="cls-5" d="M580.64,134.43q-1.21,1.39-.51,2.23a2,2,0,0,0,1.58.83,6.27,6.27,0,0,0,1.81-.28,19.61,19.61,0,0,0,7.74-4.77q3.75-3.57,3.75-7.28,0-2-4.54-4.45-2.13-1.11-2.41-1.3a7.83,7.83,0,0,1-3.15-3.34q-1.3,2.23-4.17,6.4-.65.74-1.21.32c-.37-.28-.4-.66-.09-1.16a35.14,35.14,0,0,0,5-8.71q.65-5.1,7.42-9.18t12.33-4.08q3.52,0,5,1.25a3.43,3.43,0,0,1,1.44,2.46,7,7,0,0,1-.7,2.78,7.26,7.26,0,0,1-2.83,3,.59.59,0,0,1-.93-.19q-.19-.56.79-1.53a4.72,4.72,0,0,0,1.25-2.64,1.62,1.62,0,0,0-1.48-2h-.56q-3.62,0-9,2.69a22.46,22.46,0,0,0-8.48,7,5.24,5.24,0,0,0-1.21,3.2q0,1.62,2.22,2.92.93.56,3.15,1.76t3.15,1.76a14.39,14.39,0,0,1,2.23,1.76,3.77,3.77,0,0,1,1.39,2.23q.46,2.78-2.6,6.12-4.36,4.82-13,6.77a17,17,0,0,1-3.94.46,2.78,2.78,0,0,1-2.74-1.48,1.94,1.94,0,0,1-.28-1.16,5.2,5.2,0,0,1,1.48-2.55,14.24,14.24,0,0,1,4.45-2.69.43.43,0,0,1,.56.56c-.06.19-.39.4-1,.65A5.1,5.1,0,0,0,580.64,134.43Z"/><path class="cls-3" d="M320.73,188c-1.34-11.29,3.12-24.31,6.53-36.86l.53,0c93.63-5.13,248.82-.56,293.07,2.48,9.39.52,0-7.13-8.94-8.13-24.13-2.53-220.19-4.41-281.17-2a6.74,6.74,0,0,0-1-.43c6.17-19.74,13.92-39,19.82-55.64.61-1.71-1.53-3.9-4.13-4.84-4.87-2.08-4.9.59-6.82,3.83a227.8,227.8,0,0,1-31,36.38l-28.17,25.92c-4.41,3.19-6,7.47-5.57,11.32.27,2.28,3.79-1,7.29-4.42,2.73-2.46,7.2-3.7,12.88-3.67l26.76-.53c-4.14,17.37-7.18,33.57-5.92,38.21,1.28,1.8,5,.12,5.91-1.06l-.06-.53Zm-30.92-43.23c6.46-5.39,12.17-9.62,20.44-17.72,9.1-8.55,21.08-21.34,23.39-24.29-1.83,5.55-6.67,23-10.94,40.74C313.84,143.66,300.57,142.58,289.82,144.76Z"/><path class="cls-6" d="M240.93,100.38a1.27,1.27,0,0,0-.64-.8h0a1.27,1.27,0,0,0-1.72.53h0s-6.46,12.57-26.29,14.75a25.2,25.2,0,0,0-7.5,2,20.83,20.83,0,0,0-10,9.16,21.52,21.52,0,0,0-2.46,12.54,21.08,21.08,0,0,0,3.09,8.89c-3.52,2.53-14.69,11.27-15.7,20.65a1.28,1.28,0,0,0,2.54.27c.92-8.38,11.41-16.5,14.67-18.85a22.57,22.57,0,0,0,16.1,8,27.23,27.23,0,0,0,12.41-2.11,28.45,28.45,0,0,0,10.93-8.12c7.56-9.16,11.16-24.55,4.57-46.9ZM197.65,146.2h0a18.3,18.3,0,0,1-1.28-2.4,18.59,18.59,0,0,1-1.48-5.51A19,19,0,0,1,197,127.24a18.31,18.31,0,0,1,8.81-8.05,22.68,22.68,0,0,1,6.75-1.77c13.09-1.41,20.79-7.23,24.76-11.46a54,54,0,0,1-11.76,20.69l-.78-7.81a1.28,1.28,0,0,0-2.55.14s0,.07,0,.1l1,10c-5.92,6-14.16,12-25.59,17.08Zm36.74-.56h0a25.91,25.91,0,0,1-9.95,7.42A24.66,24.66,0,0,1,213.17,155a20.15,20.15,0,0,1-14-6.67,96,96,0,0,0,12.16-6.46l11.19,2.11a1.28,1.28,0,0,0,.46-2.51l-8.6-1.63a74.34,74.34,0,0,0,11-9.28,1.29,1.29,0,0,0,.17-.18,57.52,57.52,0,0,0,14.25-24.05C244.21,124.88,240.88,137.8,234.39,145.64Z"/></g></g></svg>
