<svg xmlns="http://www.w3.org/2000/svg" viewBox="0 0 40.97 63.85"><defs><style>.cls-1{fill:#c4c1be;fill-rule:evenodd;}</style></defs><title>Zasób 4</title><g id="Warstwa_2" data-name="Warstwa 2"><g id="Warstwa_1-2" data-name="Warstwa 1"><path class="cls-1" d="M22,.85A1.63,1.63,0,0,0,20.49,0,1.59,1.59,0,0,0,19,.85Q0,33.6,0,43.36A20,20,0,0,0,2.74,53.66a20.36,20.36,0,0,0,7.49,7.46,20.11,20.11,0,0,0,10.26,2.74,20.11,20.11,0,0,0,10.26-2.74,20.32,20.32,0,0,0,7.46-7.46A20,20,0,0,0,41,43.36Q41,33.55,22,.85Zm5,30.59a1.72,1.72,0,0,1,2.45.19c.22.26,5.59,6.67,4.37,13.88-.74,4.37-3.59,8-8.59,10.82a2.32,2.32,0,0,1-.88.2,1.73,1.73,0,0,1-.85-3.22c4-2.34,6.27-5.17,6.89-8.4a12.25,12.25,0,0,0-.85-6.3,14.23,14.23,0,0,0-1.17-2.45,16,16,0,0,0-1.57-2.27A1.74,1.74,0,0,1,27,31.44Zm8.21,20.48A17.14,17.14,0,0,1,29,58.09a16.53,16.53,0,0,1-8.5,2.3,16.67,16.67,0,0,1-8.56-2.3,16.91,16.91,0,0,1-6.2-6.17,16.68,16.68,0,0,1-2.27-8.56,24.37,24.37,0,0,1,1.76-7.49A104.33,104.33,0,0,1,9.82,25.21c3.77-7.69,7.27-14.17,10.67-20,3.4,5.82,6.87,12.31,10.64,20a104.31,104.31,0,0,1,4.59,10.67,24.56,24.56,0,0,1,1.79,7.49A16.53,16.53,0,0,1,35.21,51.92Z"/></g></g></svg>