<svg xmlns="http://www.w3.org/2000/svg" viewBox="0 0 67.06 55.44"><defs><style>.cls-1{fill:#c4c1be;stroke:#c4c1be;stroke-miterlimit:22.93;stroke-width:0.22px;fill-rule:evenodd;}</style></defs><title>Zasób 2</title><g id="Warstwa_2" data-name="Warstwa 2"><g id="Warstwa_1-2" data-name="Warstwa 1"><path class="cls-1" d="M13.19,3A13.09,13.09,0,0,1,26.26,16.09a1.45,1.45,0,0,1-2.91,0A10.17,10.17,0,1,0,13.19,26.27H65.5a1.45,1.45,0,1,1,0,2.91H13.19A13.08,13.08,0,0,1,13.19,3Zm2.91,32H65.5a1.45,1.45,0,1,1,0,2.91H16.09a7.27,7.27,0,1,0,7.27,7.27,1.45,1.45,0,1,1,2.91,0A10.17,10.17,0,1,1,16.09,35ZM40.8.11a10.17,10.17,0,1,0,0,20.34H65.5a1.45,1.45,0,1,0,0-2.91H40.8a7.27,7.27,0,1,1,7.27-7.27,1.45,1.45,0,1,0,2.91,0A10.18,10.18,0,0,0,40.8.11Z"/></g></g></svg>